<?xml version="1.0" ?><svg xmlns="http://www.w3.org/2000/svg" xmlns:xlink="http://www.w3.org/1999/xlink" version="1.1" viewBox="0 0 94 94" style="enable-background:new 0 0 94 94;" xml:space="preserve"><style type="text/css">
	.st0{display:none;}
	.st1{display:inline;fill:#FEA900;}
	.st2{display:inline;}
	.st3{display:inline;fill:#F9CD6C;}
	.st4{display:inline;fill:none;stroke:#000000;stroke-width:0.25;stroke-miterlimit:10;}
	.st5{stroke:#000000;stroke-linecap:round;stroke-linejoin:round;stroke-miterlimit:10;}
	.st6{opacity:0.2;stroke:#000000;stroke-linecap:round;stroke-linejoin:round;stroke-miterlimit:10;}
	.st7{fill:#F12A00;stroke:#000000;stroke-linecap:round;stroke-linejoin:round;stroke-miterlimit:10;}
	.st8{fill:#FBECCF;stroke:#000000;stroke-linecap:round;stroke-linejoin:round;stroke-miterlimit:10;}
	.st9{opacity:0.2;fill:#F12A00;}
	.st10{fill:#F7C86C;stroke:#000000;stroke-linecap:round;stroke-linejoin:round;stroke-miterlimit:10;}
	.st11{fill:none;stroke:#000000;stroke-linecap:round;stroke-linejoin:round;stroke-miterlimit:10;}
	.st12{display:inline;stroke:#000000;stroke-linecap:round;stroke-linejoin:round;stroke-miterlimit:10;}
	.st13{fill:#FAAC01;stroke:#000000;stroke-linecap:round;stroke-linejoin:round;stroke-miterlimit:10;}
	.st14{fill:#FAAC01;}
	.st15{display:inline;fill:#FAEBCE;stroke:#000000;stroke-width:0.25;stroke-miterlimit:10;}
	.st16{display:inline;fill:none;stroke:#000000;stroke-width:1.0164;stroke-miterlimit:10;}
	.st17{display:inline;fill:#FAEBCE;stroke:#000000;stroke-width:1.0164;stroke-miterlimit:10;}
	.st18{fill:#FEA900;}
	.st19{fill:#F9CD6C;}
	.st20{fill:none;stroke:#000000;stroke-width:1.0164;stroke-miterlimit:10;}
	.st21{fill:#FAEBCE;stroke:#000000;stroke-width:1.0164;stroke-miterlimit:10;}
	.st22{display:inline;fill:#FAEBCE;}
	.st23{fill:#008FF5;stroke:#000000;stroke-linecap:round;stroke-linejoin:round;stroke-miterlimit:10;}
	.st24{fill:#D0E6FB;stroke:#000000;stroke-linecap:round;stroke-linejoin:round;stroke-miterlimit:10;}
	.st25{fill:#FFFFFF;stroke:#000000;stroke-linecap:round;stroke-linejoin:round;stroke-miterlimit:10;}
	.st26{fill:#75D95D;stroke:#000000;stroke-linecap:round;stroke-linejoin:round;stroke-miterlimit:10;}
	.st27{fill:#CAF3BB;}
	.st28{fill:#FFFFFF;}
	.st29{fill:#CAF3BB;stroke:#000000;stroke-linecap:round;stroke-linejoin:round;stroke-miterlimit:10;}
	.st30{display:inline;fill:#D0E6FB;stroke:#000000;stroke-linecap:round;stroke-linejoin:round;stroke-miterlimit:10;}
	.st31{stroke:#FFFFFF;stroke-linecap:round;stroke-linejoin:round;stroke-miterlimit:10;}
	.st32{fill:#B4B2FB;stroke:#000000;stroke-linecap:round;stroke-linejoin:round;stroke-miterlimit:10;}
	.st33{fill:#018BEE;}
	.st34{display:inline;fill:none;stroke:#000000;stroke-linecap:round;stroke-linejoin:round;stroke-miterlimit:10;}
	.st35{fill:#75D95D;}
	.st36{fill:#4949F7;stroke:#000000;stroke-linecap:round;stroke-linejoin:round;stroke-miterlimit:10;}
	.st37{fill:#D0E6FB;}
	.st38{fill:#6FBBF7;stroke:#000000;stroke-linecap:round;stroke-linejoin:round;stroke-miterlimit:10;}
	.st39{fill:#018BEE;stroke:#000000;stroke-linecap:round;stroke-linejoin:round;stroke-miterlimit:10;}
	.st40{fill:#B4B2FB;}
	.st41{fill:#E8E9FE;}
	.st42{fill:#B4B2FB;stroke:#000F24;stroke-miterlimit:10;}
	.st43{stroke:#000000;stroke-miterlimit:10;}
	.st44{fill:#E8E9FE;stroke:#000000;stroke-linecap:round;stroke-linejoin:round;stroke-miterlimit:10;}
	.st45{opacity:0.3;fill:#018BEE;}
	.st46{fill:#6FBBF7;}
	.st47{fill:#FAAC01;stroke:#FFFFFF;stroke-linecap:round;stroke-linejoin:round;stroke-miterlimit:10;}
	.st48{fill:#006A2F;}
	.st49{opacity:0.1;}
	.st50{fill:#FCD4CA;stroke:#000000;stroke-linecap:round;stroke-linejoin:round;stroke-miterlimit:10;}
	.st51{fill:#006A2F;stroke:#000000;stroke-linecap:round;stroke-linejoin:round;stroke-miterlimit:10;}
	.st52{fill:#4949F7;}
	.st53{fill:#F12A00;}
	.st54{fill:#D0E6FB;stroke:#018BEE;stroke-linecap:round;stroke-linejoin:round;stroke-miterlimit:10;}
	.st55{fill:#9CD7FF;}
	.st56{fill:#F7C86C;}
	.st57{opacity:0.3;stroke:#000000;stroke-linecap:round;stroke-linejoin:round;stroke-miterlimit:10;}
	.st58{opacity:0.1;stroke:#000000;stroke-linecap:round;stroke-linejoin:round;stroke-miterlimit:10;}
	.st59{opacity:0.3;fill:#006A2F;}
	.st60{stroke:#000000;stroke-width:1.0825;stroke-linecap:round;stroke-linejoin:round;stroke-miterlimit:10;}
	.st61{fill:#D0E6FB;stroke:#000000;stroke-width:1.0825;stroke-linecap:round;stroke-linejoin:round;stroke-miterlimit:10;}
	.st62{fill:#6FBBF7;stroke:#000000;stroke-width:1.0825;stroke-linecap:round;stroke-linejoin:round;stroke-miterlimit:10;}
	.st63{fill:none;stroke:#000000;stroke-width:1.0825;stroke-linecap:round;stroke-linejoin:round;stroke-miterlimit:10;}
	.st64{fill:#CAF3BB;stroke:#000000;stroke-width:0.7876;stroke-linecap:round;stroke-linejoin:round;stroke-miterlimit:10;}
	.st65{fill:#6FBBF7;stroke:#FFFFFF;stroke-linecap:round;stroke-linejoin:round;stroke-miterlimit:10;}
	.st66{opacity:0.2;}
	.st67{stroke:#E8E9FE;stroke-linecap:round;stroke-linejoin:round;stroke-miterlimit:10;}
	.st68{fill:#FCD4CA;}
	.st69{fill:#FBECCF;}
	.st70{opacity:0.1;fill:#F12A00;}
	.st71{opacity:0.5;stroke:#000000;stroke-linecap:round;stroke-linejoin:round;stroke-miterlimit:10;}
	.st72{fill:#6FBBF7;stroke:#E8E9FE;stroke-linecap:round;stroke-linejoin:round;stroke-miterlimit:10;}
	.st73{opacity:0.5;fill:#D0E6FB;}
	.st74{fill:#70BAF7;}
	.st75{fill:none;stroke:#FFFFFF;stroke-linecap:round;stroke-linejoin:round;stroke-miterlimit:10;}
	.st76{fill:#70BAF7;stroke:#70BAF7;stroke-linecap:round;stroke-linejoin:round;stroke-miterlimit:10;}
	.st77{fill:#018BEE;stroke:#018BEE;stroke-linecap:round;stroke-linejoin:round;stroke-miterlimit:10;}
	.st78{fill:#70BAF7;stroke:#000000;stroke-linecap:round;stroke-linejoin:round;stroke-miterlimit:10;}
	.st79{fill:#F9CD6C;stroke:#000000;stroke-linecap:round;stroke-linejoin:round;stroke-miterlimit:10;}
	.st80{fill:none;}
	.st81{fill:#006A2F;stroke:#006A2F;stroke-miterlimit:10;}
	.st82{fill:#B4DFFC;}
	.st83{fill:#6FBBF7;stroke:#018BEE;stroke-linecap:round;stroke-linejoin:round;stroke-miterlimit:10;}
	.st84{fill:none;stroke:#FBECCF;stroke-linecap:round;stroke-linejoin:round;stroke-miterlimit:10;}
	.st85{fill:none;stroke:#018BEE;stroke-linecap:round;stroke-linejoin:round;stroke-miterlimit:10;}
	.st86{fill:#010101;stroke:#FFFFFF;stroke-linecap:round;stroke-linejoin:round;stroke-miterlimit:10;}
	.st87{fill:#010101;stroke:#000000;stroke-linecap:round;stroke-linejoin:round;stroke-miterlimit:10;}
	.st88{fill:#75D95D;stroke:#FFFFFF;stroke-linecap:round;stroke-linejoin:round;stroke-miterlimit:10;}
	.st89{fill:#94F279;stroke:#000000;stroke-linecap:round;stroke-linejoin:round;stroke-miterlimit:10;}
	.st90{fill:#8C8CF9;}
	.st91{fill:#008FF5;}
	.st92{fill:#8CD8F9;}
	.st93{fill:#FFC043;}
	.st94{fill:#94F279;}
	.st95{fill:#FF3D1D;}
	.st96{fill:#31B1FF;}
	.st97{fill:#FFCF7B;}
	.st98{fill:#B2FF99;}
	.st99{fill:#D7D7FF;}
	.st100{fill:#FF7C6E;}
	.st101{fill:#5CC9FF;}
	.st102{fill:#F12A00;stroke:#FFFFFF;stroke-linecap:round;stroke-linejoin:round;stroke-miterlimit:10;}
	.st103{fill:#F7C86C;stroke:#000000;stroke-width:1.0164;stroke-miterlimit:10;}
</style><g id="Refrences" class="st0"/><g id="Tittle"/><g id="Icons"><g><g><g><path class="st5" d="M58.87,5.34h-5.19c-1.55,0-2.99,0.82-3.77,2.16l-0.27,0.47c-0.78,1.34-2.22,2.16-3.77,2.16H19.63      c-2.29,0-4.14,1.85-4.14,4.14v16.25l43.37-3.92V5.34z"/><path class="st5" d="M58.87,15.73H21.41c-1.63,0-2.95,1.32-2.95,2.95v19.95c0,1.63,1.32,2.95,2.95,2.95h37.46V15.73z"/><path class="st5" d="M25.2,15.73h-3.79c-1.63,0-2.95,1.32-2.95,2.95v19.95c0,1.63,1.32,2.95,2.95,2.95h3.79V15.73z"/><g><path d="M58.87,24.11h-9.97c-0.64,0-1.25,0.2-1.77,0.58l-7.2,5.26c-0.51,0.37-1.13,0.58-1.77,0.58H14.08       c-2,0-3.44,1.92-2.87,3.84L16.41,52c0.38,1.27,1.55,2.15,2.87,2.15h39.58V24.11z"/><path class="st11" d="M58.87,24.11h-9.97c-0.64,0-1.25,0.2-1.77,0.58l-7.2,5.26c-0.51,0.37-1.13,0.58-1.77,0.58H14.08       c-2,0-3.44,1.92-2.87,3.84L16.41,52c0.38,1.27,1.55,2.15,2.87,2.15h39.58V24.11z"/></g><path class="st5" d="M58.87,15.73H21.41c-1.63,0-2.95,1.32-2.95,2.95v19.95c0,1.63,1.32,2.95,2.95,2.95h37.46V15.73z"/><g><path d="M58.87,24.11h-9.97c-0.64,0-1.25,0.2-1.77,0.58l-7.2,5.26c-0.51,0.37-1.13,0.58-1.77,0.58H14.08       c-2,0-3.44,1.92-2.87,3.84L16.41,52c0.38,1.27,1.55,2.15,2.87,2.15h39.58V24.11z"/><path class="st11" d="M58.87,24.11h-9.97c-0.64,0-1.25,0.2-1.77,0.58l-7.2,5.26c-0.51,0.37-1.13,0.58-1.77,0.58H14.08       c-2,0-3.44,1.92-2.87,3.84L16.41,52c0.38,1.27,1.55,2.15,2.87,2.15h39.58V24.11z"/></g><g><path d="M58.87,24.11h-9.97c-0.64,0-1.25,0.2-1.77,0.58l-7.2,5.26c-0.51,0.37-1.13,0.58-1.77,0.58H14.08       c-2,0-3.44,1.92-2.87,3.84L16.41,52c0.38,1.27,1.55,2.15,2.87,2.15h39.58V24.11z"/><path class="st11" d="M58.87,24.11h-9.97c-0.64,0-1.25,0.2-1.77,0.58l-7.2,5.26c-0.51,0.37-1.13,0.58-1.77,0.58H14.08       c-2,0-3.44,1.92-2.87,3.84L16.41,52c0.38,1.27,1.55,2.15,2.87,2.15h39.58V24.11z"/></g></g></g><g><path class="st5" d="M6.56,76.72v9.62c0,0.87,0.71,1.57,1.57,1.57h10.37c0.87,0,1.57-0.71,1.57-1.57v-9.62H6.56z"/><path class="st57" d="M6.56,77.92v8.42c0,0.87,0.71,1.57,1.57,1.57h10.37c0.87,0,1.57-0.71,1.57-1.57v-8.42H6.56z"/><path class="st5" d="M85.79,66.64c-0.97-1.53-2.91-2.13-4.58-1.41l-11.08,4.79v6.69H20.09v8.79c0,0,17.15-2.38,23.09,1.87     c5.94,4.25,21.62-3.4,21.62-3.4l19.81-12.22C86.36,70.68,86.89,68.38,85.79,66.64z"/><path class="st58" d="M20.09,76.72v8.79c0,0,8.7-1.2,15.86-0.36c-1.3-2.78-2-5.59-2.2-8.42H20.09z"/><path class="st5" d="M6.56,76.72v9.62c0,0.87,0.71,1.57,1.57,1.57h10.37c0.87,0,1.57-0.71,1.57-1.57v-9.62H6.56z"/><path class="st5" d="M85.79,66.64c-0.97-1.53-2.91-2.13-4.58-1.41l-11.08,4.79v6.69H20.09v8.79c0,0,17.15-2.38,23.09,1.87     c5.94,4.25,21.62-3.4,21.62-3.4l19.81-12.22C86.36,70.68,86.89,68.38,85.79,66.64z"/></g><g><path class="st10" d="M18.19,30.52V14.28c0-2.29,1.85-4.14,4.14-4.14h26.23c1.55,0,2.99-0.82,3.77-2.16l0.27-0.47     c0.78-1.34,2.22-2.16,3.77-2.16h7.2c1.62,0,3.11,0.9,3.86,2.33v0C68.2,9.11,69.68,10,71.3,10h3.58c2.29,0,4.14,1.85,4.14,4.14     v10.87"/><path class="st5" d="M76.29,21.56v-5.17c0-1.63-1.32-2.95-2.95-2.95H24.1c-1.63,0-2.95,1.32-2.95,2.95v5.17H76.29z"/><path class="st44" d="M73.34,41.59H24.1c-1.63,0-2.95-1.32-2.95-2.95V18.68c0-1.63,1.32-2.95,2.95-2.95h49.24     c1.63,0,2.95,1.32,2.95,2.95v19.95C76.29,40.27,74.97,41.59,73.34,41.59z"/><path class="st37" d="M27.9,15.73H24.1c-1.63,0-2.95,1.32-2.95,2.95v19.95c0,1.63,1.32,2.95,2.95,2.95h3.79V15.73z"/><path class="st11" d="M73.71,54.15H21.98c-1.33,0-2.5-0.87-2.87-2.15l-5.2-17.64c-0.57-1.92,0.87-3.84,2.87-3.84h24.07     c0.63,0,1.25-0.2,1.77-0.58l7.2-5.26c0.51-0.37,1.13-0.58,1.77-0.58h29.07c1.99,0,3.43,1.91,2.88,3.83l-6.95,24.05     C76.22,53.27,75.04,54.15,73.71,54.15z"/><path class="st11" d="M73.34,41.59H24.1c-1.63,0-2.95-1.32-2.95-2.95V18.68c0-1.63,1.32-2.95,2.95-2.95h49.24     c1.63,0,2.95,1.32,2.95,2.95v19.95C76.29,40.27,74.97,41.59,73.34,41.59z"/><path class="st10" d="M73.71,54.15H21.98c-1.33,0-2.5-0.87-2.87-2.15l-5.2-17.64c-0.57-1.92,0.87-3.84,2.87-3.84h24.07     c0.63,0,1.25-0.2,1.77-0.58l7.2-5.26c0.51-0.37,1.13-0.58,1.77-0.58h29.07c1.99,0,3.43,1.91,2.88,3.83l-6.95,24.05     C76.22,53.27,75.04,54.15,73.71,54.15z"/><path class="st14" d="M80.66,24.11H66.53c11.37,10.51,9.34,20.43,0,30.04h7.17c1.33,0,2.51-0.88,2.88-2.16l6.95-24.05     C84.09,26.03,82.65,24.11,80.66,24.11z"/><path class="st11" d="M73.71,54.15H21.98c-1.33,0-2.5-0.87-2.87-2.15l-5.2-17.64c-0.57-1.92,0.87-3.84,2.87-3.84h24.07     c0.63,0,1.25-0.2,1.77-0.58l7.2-5.26c0.51-0.37,1.13-0.58,1.77-0.58h29.07c1.99,0,3.43,1.91,2.88,3.83l-6.95,24.05     C76.22,53.27,75.04,54.15,73.71,54.15z"/></g><g><path class="st26" d="M18.51,86.31H8.14c-0.87,0-1.57-0.71-1.57-1.57V64.7c0-0.87,0.71-1.57,1.57-1.57h10.37     c0.87,0,1.57,0.71,1.57,1.57v20.04C20.09,85.61,19.38,86.31,18.51,86.31z"/><path class="st59" d="M6.56,76.32v8.42c0,0.87,0.71,1.57,1.57,1.57h10.37c0.87,0,1.57-0.71,1.57-1.57v-8.42H6.56z"/><path class="st50" d="M52.82,74.45l9.98-1.61c1.4-0.23,2.3-1.62,1.92-2.99v0c-0.8-2.89-3.7-4.64-6.64-4.03     c-4.83,1-12.04,1.68-16.94-1.55c-7.98-5.26-21.06,2.21-21.06,2.21V83.9c0,0,17.15-2.38,23.09,1.87c5.94,4.25,21.62-3.4,21.62-3.4     l19.81-12.22c1.75-1.08,2.28-3.38,1.18-5.11h0c-0.97-1.53-2.91-2.13-4.58-1.41l-16.43,7.1"/><path class="st49" d="M35.94,62.48c-7.45-0.81-15.86,3.99-15.86,3.99V83.9c0,0,8.7-1.2,15.86-0.36     C32.73,76.67,33.11,69.63,35.94,62.48z"/><path class="st11" d="M18.51,86.31H8.14c-0.87,0-1.57-0.71-1.57-1.57V64.7c0-0.87,0.71-1.57,1.57-1.57h10.37     c0.87,0,1.57,0.71,1.57,1.57v20.04C20.09,85.61,19.38,86.31,18.51,86.31z"/><path class="st11" d="M52.82,74.45l9.98-1.61c1.4-0.23,2.3-1.62,1.92-2.99v0c-0.8-2.89-3.7-4.64-6.64-4.03     c-4.83,1-12.04,1.68-16.94-1.55c-7.98-5.26-21.06,2.21-21.06,2.21V83.9c0,0,17.15-2.38,23.09,1.87c5.94,4.25,21.62-3.4,21.62-3.4     l19.81-12.22c1.75-1.08,2.28-3.38,1.18-5.11h0c-0.97-1.53-2.91-2.13-4.58-1.41l-16.43,7.1"/><circle class="st5" cx="13.32" cy="68.78" r="2.24"/><circle class="st44" cx="13.32" cy="68" r="2.24"/></g><path class="st28" d="M58.34,67.98l1.43-0.19c0.5-0.06,0.98,0.18,1.23,0.61l0.6,1.06c0.42,0.74-0.02,1.68-0.87,1.83l-2.26,0.38    c-0.84,0.14-1.57-0.59-1.42-1.43l0.22-1.26C57.38,68.46,57.81,68.05,58.34,67.98z"/><g><circle class="st5" cx="73.61" cy="49.64" r="12.34"/><circle class="st38" cx="75.1" cy="49.64" r="12.34"/><path class="st52" d="M70.58,38.16c-4.58,1.8-7.83,6.26-7.83,11.48c0,5.22,3.25,9.67,7.83,11.48     C64.15,53.76,63.89,46.13,70.58,38.16z"/><g><polyline class="st11" points="78.89,54.78 70.2,49.64 78.89,44.5     "/><circle class="st5" cx="70.2" cy="50.15" r="2.67"/><g><circle class="st5" cx="78.89" cy="45.01" r="2.67"/><circle class="st5" cx="78.89" cy="55.29" r="2.67"/></g><circle class="st8" cx="70.2" cy="49.64" r="2.67"/><g><circle class="st32" cx="78.89" cy="44.5" r="2.67"/><circle class="st10" cx="78.89" cy="54.78" r="2.67"/></g></g><circle class="st11" cx="75.1" cy="49.64" r="12.34"/></g></g></g><g id="Layer_4"/></svg>